<?xml version="1.0" encoding="utf-8"?>
<!-- Generator: Adobe Illustrator 16.0.0, SVG Export Plug-In . SVG Version: 6.00 Build 0)  -->
<!DOCTYPE svg PUBLIC "-//W3C//DTD SVG 1.1//EN" "http://www.w3.org/Graphics/SVG/1.1/DTD/svg11.dtd">
<svg version="1.1" id="Layer_1" xmlns="http://www.w3.org/2000/svg" xmlns:xlink="http://www.w3.org/1999/xlink" x="0px" y="0px"
	 width="739.749px" height="677.238px" viewBox="0 0 739.749 677.238" enable-background="new 0 0 739.749 677.238"
	 xml:space="preserve">
<polygon fill="#FFFFFF" points="652.053,51.256 652.053,187.189 652.058,51.253 "/>
<path fill="#FFFFFF" d="M739.749,195.928l-39.898,0.008l-0.488-0.005l-5.204,0.005v0.022l-13.879,0.005v-0.038l-33.295,20.778
	L383.988,383.136l-0.003-162.291L652.053,51.256l0.005-0.003l-0.005,135.937l28.227-17.799V0L369.874,196.383L59.47,0v147.924
	c4.605-0.673,9.313-1.027,14.104-1.027c4.795,0,9.507,0.355,14.117,1.029V51.242l268.073,169.603v92.347v69.943L168.593,264.723
	l-21.756-13.764c2.021-21.705-5.677-43.321-21.231-58.875c-13.895-13.898-32.37-21.553-52.023-21.553
	c-19.652,0-38.129,7.654-52.024,21.551C7.656,205.977,0.001,224.453,0,244.109c0,19.653,7.654,38.134,21.554,52.037
	c13.895,13.89,32.369,21.539,52.02,21.539c12.849,0,25.273-3.286,36.296-9.555l21.872,13.838l224.022,141.729v11.865V634.91
	L87.69,465.312v-125.01c-4.61,0.674-9.322,1.028-14.117,1.028c-4.79,0-9.498-0.354-14.104-1.026v140.552l28.229,17.86
	l268.065,169.591l14.11,8.932l14.111-8.938l268.072-169.585l28.222-17.86V301.887l-28.222,17.826v145.599L383.985,634.917V463.702
	l262.659-166.177l33.635-21.278v0.155l34.183-0.009v-0.007l25.287-0.01l-22.786-40.221L739.749,195.928z M61.375,255.913
	c-10.803,0-19.566-8.759-19.566-19.562s8.764-19.57,19.566-19.57s19.566,8.768,19.566,19.57S72.178,255.913,61.375,255.913z"/>
</svg>
