<?xml version="1.0" encoding="utf-8"?>
<!-- Generator: Adobe Illustrator 16.0.0, SVG Export Plug-In . SVG Version: 6.00 Build 0)  -->
<!DOCTYPE svg PUBLIC "-//W3C//DTD SVG 1.1//EN" "http://www.w3.org/Graphics/SVG/1.1/DTD/svg11.dtd">
<svg version="1.1" id="Layer_1" xmlns="http://www.w3.org/2000/svg" xmlns:xlink="http://www.w3.org/1999/xlink" x="0px" y="0px"
	 width="1086.121px" height="880.786px" viewBox="0 0 1086.121 880.786" enable-background="new 0 0 1086.121 880.786"
	 xml:space="preserve">
<g>
	<g>
		<path fill="#FFFFFF" d="M117.797,821.019c4.389,5.749,6.59,12.817,6.59,21.214c0,11.887-4.623,21.025-13.855,27.414
			c-9.236,6.394-22.699,9.59-40.398,9.59H0V743.617h66.26c16.535,0,29.225,3.166,38.072,9.498
			c8.846,6.328,13.271,14.916,13.271,25.766c0,6.584-1.582,12.465-4.75,17.631c-3.162,5.166-7.586,9.236-13.266,12.209
			C107.334,811.174,113.404,815.277,117.797,821.019z M31.195,767.253v31.972h31.191c7.746,0,13.625-1.357,17.633-4.07
			c4.002-2.715,6.002-6.713,6.002-12.01s-2-9.271-6.002-11.916c-4.008-2.645-9.887-3.976-17.633-3.976H31.195z M86.512,851.532
			c4.189-2.712,6.293-6.907,6.293-12.593c0-11.235-8.332-16.854-24.994-16.854H31.195v33.517h36.615
			C76.078,855.602,82.309,854.248,86.512,851.532z"/>
		<path fill="#FFFFFF" d="M166.141,873.91c-8.719-4.582-15.537-10.945-20.447-19.083c-4.904-8.136-7.357-17.374-7.357-27.708
			c0-10.328,2.453-19.566,7.357-27.705c4.91-8.133,11.729-14.496,20.447-19.079c8.717-4.585,18.559-6.881,29.539-6.881
			c10.979,0,20.795,2.296,29.455,6.881c8.65,4.583,15.424,10.946,20.338,19.079c4.91,8.139,7.361,17.377,7.361,27.705
			c0,10.334-2.451,19.572-7.361,27.708c-4.914,8.138-11.688,14.501-20.338,19.083c-8.66,4.59-18.477,6.876-29.455,6.876
			C184.699,880.786,174.857,878.5,166.141,873.91z M214.766,848.144c4.969-5.231,7.453-12.237,7.453-21.024
			c0-8.779-2.484-15.789-7.453-21.018c-4.971-5.23-11.336-7.85-19.086-7.85c-7.746,0-14.143,2.619-19.18,7.85
			c-5.039,5.229-7.559,12.238-7.559,21.018c0,8.787,2.52,15.793,7.559,21.024c5.037,5.232,11.434,7.843,19.18,7.843
			C203.43,855.986,209.795,853.376,214.766,848.144z"/>
		<path fill="#FFFFFF" d="M293.035,873.91c-8.717-4.582-15.527-10.945-20.436-19.083c-4.912-8.136-7.367-17.374-7.367-27.708
			c0-10.328,2.455-19.566,7.367-27.705c4.908-8.133,11.719-14.496,20.436-19.079c8.721-4.585,18.568-6.881,29.549-6.881
			c10.975,0,20.795,2.296,29.447,6.881c8.652,4.583,15.438,10.946,20.342,19.079c4.904,8.139,7.365,17.377,7.365,27.705
			c0,10.334-2.461,19.572-7.365,27.708c-4.904,8.138-11.689,14.501-20.342,19.083c-8.652,4.59-18.473,6.876-29.447,6.876
			C311.604,880.786,301.756,878.5,293.035,873.91z M341.668,848.144c4.969-5.231,7.455-12.237,7.455-21.024
			c0-8.779-2.486-15.789-7.455-21.018c-4.975-5.23-11.338-7.85-19.084-7.85c-7.754,0-14.141,2.619-19.182,7.85
			c-5.037,5.229-7.555,12.238-7.555,21.018c0,8.787,2.518,15.793,7.555,21.024c5.041,5.232,11.428,7.843,19.182,7.843
			C330.33,855.986,336.693,853.376,341.668,848.144z"/>
		<path fill="#FFFFFF" d="M444.643,838.361l-14.529,14.334v26.541h-30.23V735.483h30.23v81.372l44.172-41.853h36.031l-43.396,44.172
			l47.273,60.062h-36.615L444.643,838.361z"/>
		<path fill="#FFFFFF" d="M689.141,775.003l-37.777,104.233h-29.057l-23.447-64.71l-24.219,64.71H545.58l-37.584-104.233h28.48
			l24.609,70.524l25.566-70.524h25.576l24.795,70.524l25.381-70.524H689.141z"/>
		<path fill="#FFFFFF" d="M720.432,873.91c-8.721-4.582-15.535-10.945-20.439-19.083c-4.914-8.136-7.365-17.374-7.365-27.708
			c0-10.328,2.451-19.566,7.365-27.705c4.904-8.133,11.719-14.496,20.439-19.079c8.717-4.585,18.563-6.881,29.545-6.881
			c10.979,0,20.793,2.296,29.447,6.881c8.652,4.583,15.434,10.946,20.348,19.079c4.904,8.139,7.359,17.377,7.359,27.705
			c0,10.334-2.455,19.572-7.359,27.708c-4.914,8.138-11.695,14.501-20.348,19.083c-8.654,4.59-18.469,6.876-29.447,6.876
			C738.994,880.786,729.148,878.5,720.432,873.91z M769.059,848.144c4.977-5.231,7.463-12.237,7.463-21.024
			c0-8.779-2.486-15.789-7.463-21.018c-4.973-5.23-11.332-7.85-19.082-7.85s-14.143,2.619-19.18,7.85
			c-5.041,5.229-7.555,12.238-7.555,21.018c0,8.787,2.514,15.793,7.555,21.024c5.037,5.232,11.43,7.843,19.18,7.843
			S764.086,853.376,769.059,848.144z"/>
		<path fill="#FFFFFF" d="M870.773,777.329c6.133-2.584,13.203-3.875,21.215-3.875v27.898c-3.359-0.258-5.617-0.382-6.779-0.382
			c-8.656,0-15.436,2.416-20.344,7.259c-4.91,4.847-7.361,12.112-7.361,21.8v49.207h-30.221V775.003h28.863v13.757
			C859.758,783.723,864.639,779.918,870.773,777.329z"/>
		<path fill="#FFFFFF" d="M1074.594,784.982c7.682,7.691,11.527,19.215,11.527,34.586v59.668h-30.227v-55.02
			c0-8.266-1.709-14.435-5.133-18.508c-3.426-4.064-8.301-6.102-14.623-6.102c-7.104,0-12.729,2.3-16.859,6.881
			c-4.133,4.586-6.199,11.398-6.199,20.441v52.307h-30.221v-55.02c0-16.404-6.592-24.609-19.766-24.609
			c-6.973,0-12.527,2.3-16.662,6.881c-4.131,4.586-6.199,11.398-6.199,20.441v52.307h-30.225V775.003h28.869v12.013
			c3.875-4.387,8.623-7.748,14.236-10.072c5.623-2.322,11.787-3.489,18.506-3.489c7.363,0,14.016,1.457,19.961,4.358
			c5.934,2.905,10.711,7.143,14.328,12.693c4.266-5.428,9.662-9.623,16.184-12.592c6.518-2.975,13.658-4.46,21.408-4.46
			C1056.545,773.454,1066.906,777.302,1074.594,784.982z"/>
	</g>
	<polygon fill="#FFFFFF" points="825.239,51.256 825.239,187.189 825.244,51.253 	"/>
	<path fill="#FFFFFF" d="M912.936,195.928l-39.898,0.008l-0.488-0.005l-5.204,0.005v0.022l-13.879,0.005v-0.038l-33.295,20.778
		L557.175,383.136l-0.003-162.291L825.239,51.256l0.005-0.003l-0.005,135.937l28.227-17.799V0L543.061,196.383L232.656,0v147.924
		c4.605-0.673,9.313-1.027,14.104-1.027c4.795,0,9.507,0.355,14.117,1.029V51.242L528.95,220.845v92.347v69.943L341.779,264.723
		l-21.756-13.764c2.021-21.705-5.677-43.321-21.231-58.875c-13.895-13.898-32.37-21.553-52.023-21.553
		c-19.652,0-38.129,7.654-52.024,21.551c-13.901,13.895-21.557,32.371-21.558,52.027c0,19.653,7.654,38.134,21.554,52.037
		c13.895,13.89,32.369,21.539,52.02,21.539c12.849,0,25.273-3.286,36.296-9.555l21.872,13.838L528.95,463.697v11.865V634.91
		L260.877,465.312v-125.01c-4.61,0.674-9.322,1.028-14.117,1.028c-4.79,0-9.498-0.354-14.104-1.026v140.552l28.229,17.86
		L528.95,668.307l14.11,8.932l14.111-8.938l268.072-169.585l28.222-17.86V301.887l-28.222,17.826v145.599L557.172,634.917V463.702
		l262.659-166.177l33.635-21.278v0.155l34.183-0.009v-0.007l25.287-0.01l-22.786-40.221L912.936,195.928z M234.562,255.913
		c-10.803,0-19.566-8.759-19.566-19.562s8.764-19.57,19.566-19.57s19.566,8.768,19.566,19.57S245.364,255.913,234.562,255.913z"/>
</g>
</svg>
